<svg width="141" height="23" viewBox="0 0 141 23" fill="none" xmlns="http://www.w3.org/2000/svg">
<g clip-path="url(#clip0_2649_27180)">
<path fill-rule="evenodd" clip-rule="evenodd" d="M13.2679 0.928086C14.2018 0.680352 15.1984 0.871796 15.9725 1.44787L18.7315 3.50143C19.5284 4.09468 19.9977 5.02696 19.9979 6.01748L20 18.0626C20.0001 18.5421 19.692 18.9684 19.2352 19.1206C18.7558 19.2801 18.2276 19.1003 17.9472 18.6816L16.3178 16.2474L6.7979 18.7307C5.83222 18.9826 4.8029 18.7653 4.02344 18.1444L1.18627 15.8852C0.437658 15.2889 0.00235355 14.3859 0.00205607 13.4316L1.51913e-07 6.86366C-0.000441425 5.43907 0.961832 4.19265 2.34478 3.82578L13.2679 0.928086ZM3.6544 5.59387C2.73857 5.8425 2.10331 6.67084 2.10321 7.61571V13.8746L4.20847 15.4452V8.3872C4.20851 7.91476 4.52665 7.50059 4.98458 7.37628L15.7874 4.4438L13.6822 2.87216L3.6544 5.59387Z" fill="#070707"/>
</g>
<path d="M45.072 17H39.088V16.274C40.584 16.12 40.65 16.054 40.65 14.096L40.628 5.472H40.54L36.272 16.802H35.612L31.696 5.758H31.586L31.366 11.39C31.3 13.216 31.278 14.272 31.344 14.91C31.432 15.922 31.828 16.164 33.192 16.274V17H28.352V16.274C29.518 16.164 29.826 15.856 29.958 15.086C30.068 14.404 30.222 13.15 30.376 11.104L30.684 6.418C30.838 4.042 30.728 3.756 29.012 3.602V2.876H33.28L36.932 12.226L40.65 2.876H44.896V3.602C43.268 3.756 43.202 3.888 43.246 5.604L43.422 14.096C43.466 16.032 43.576 16.098 45.072 16.274V17ZM53.5454 14.426L53.9414 14.976C52.7534 16.78 51.1694 17.264 50.2674 17.264C47.4954 17.264 45.9334 15.064 45.9334 12.578C45.9334 10.73 46.7254 9.322 47.4954 8.552C48.3314 7.672 49.4534 7.012 50.6414 7.012H50.6634C52.6214 7.012 54.0294 8.772 54.0294 10.554C54.0294 11.038 53.9414 11.28 53.4354 11.368C53.1274 11.434 50.5314 11.632 48.5294 11.72C48.5734 14.074 49.8274 15.328 51.2794 15.328C52.1814 15.328 52.8414 15.042 53.5454 14.426ZM50.2674 7.87C49.4974 7.87 48.7494 9.036 48.6174 10.708C49.4754 10.686 50.2234 10.664 51.0154 10.642C51.3894 10.642 51.4994 10.532 51.4994 10.136C51.4994 9.036 51.0594 7.87 50.2674 7.87ZM71.1478 17H66.3078V16.318C67.2098 16.208 67.3198 16.098 67.3198 14.756V10.73C67.3198 9.168 66.6598 8.706 65.9338 8.706C65.4498 8.706 65.0318 8.816 64.3938 9.388C64.4158 9.718 64.4378 9.982 64.4378 10.202V14.8C64.4378 16.098 64.5478 16.186 65.4718 16.318V17H60.7198V16.318C61.6658 16.186 61.7538 16.12 61.7538 14.8V10.686C61.7538 9.256 61.1598 8.706 60.3458 8.706C59.8178 8.706 59.3558 8.926 58.8498 9.366V14.8C58.8498 16.098 58.9818 16.186 59.7738 16.318V17H54.8458V16.318C56.0778 16.186 56.1658 16.098 56.1658 14.734V9.982C56.1658 8.684 56.1218 8.596 55.1318 8.376V7.804C56.3198 7.65 57.6838 7.342 58.8278 6.99V8.574C59.2238 8.288 59.5318 8.046 59.9498 7.76C60.6318 7.32 61.1598 7.012 61.8858 7.012C63.0298 7.012 63.8438 7.76 64.1958 8.684C64.6358 8.354 65.0758 8.046 65.5818 7.694C66.1318 7.32 66.7038 7.012 67.3198 7.012C69.1458 7.012 70.0038 8.332 70.0038 10.378V14.756C70.0038 16.098 70.0918 16.164 71.1478 16.318V17ZM77.0268 7.012C79.8428 7.012 81.6248 9.322 81.6248 11.94C81.6248 15.504 79.3588 17.264 76.9388 17.264C73.7488 17.264 72.2088 14.734 72.2088 12.358C72.2088 8.728 74.7828 7.012 77.0268 7.012ZM76.7188 7.848C75.9048 7.848 75.1788 9.058 75.1788 11.588C75.1788 14.338 75.8828 16.428 77.1368 16.428C77.8848 16.428 78.6548 15.812 78.6548 12.578C78.6548 9.63 77.9508 7.848 76.7188 7.848ZM86.6082 9.278H86.6522C87.3562 7.936 88.1042 7.012 88.9842 7.012C89.7322 7.012 90.2822 7.628 90.2822 8.376C90.2822 9.146 89.7542 9.762 89.2262 9.96C88.9402 10.07 88.7422 10.026 88.5882 9.894C88.2582 9.608 88.0162 9.454 87.6862 9.454C87.3122 9.454 86.9602 9.586 86.6082 10.422V14.778C86.6082 16.12 86.7182 16.208 88.2142 16.318V17H82.6702V16.318C83.7922 16.208 83.9242 16.076 83.9242 14.778V9.938C83.9242 8.772 83.8142 8.662 82.8462 8.42V7.826C84.1662 7.672 85.4642 7.386 86.6082 6.99V9.278ZM100.979 7.276V7.936C99.9672 8.112 99.7912 8.332 99.3072 9.52C98.7792 10.796 98.1852 12.424 97.0192 15.526C95.7212 19.068 95.3032 20.476 95.0172 21.532C94.8632 22.038 94.5992 22.192 94.2032 22.192C93.5872 22.192 92.7072 21.576 92.7072 20.894C92.7072 20.542 92.8612 20.322 93.3012 20.058C94.0272 19.64 94.4892 19.288 94.8192 18.716C95.0612 18.21 95.2152 17.902 95.2812 17.638C95.3252 17.33 95.2592 17.022 95.1272 16.648C94.0272 13.326 92.9492 10.334 92.5092 9.278C92.1132 8.31 91.8932 8.046 90.9912 7.936V7.276H96.1172V7.936C95.0612 8.068 95.0612 8.31 95.3032 9.124L96.7992 13.942C97.3492 12.336 97.8772 10.598 98.2952 9.146C98.5152 8.332 98.3612 8.09 97.2832 7.936V7.276H100.979ZM103.365 2.876H108.579C111.703 2.876 113.001 3.954 113.001 5.934C113.001 8.068 111.153 8.97 109.415 9.278V9.322C111.197 9.696 112.583 10.664 112.583 12.666C112.583 14.25 111.549 15.46 110.207 16.164C109.019 16.802 107.435 17 105.719 17H100.681L100.835 16.318C102.265 16.208 102.441 15.966 102.771 14.338L104.509 5.56C104.839 3.888 104.641 3.69 103.167 3.558L103.365 2.876ZM106.489 8.992H107.039C109.151 8.992 110.141 7.738 110.141 5.912C110.141 4.284 109.173 3.712 108.359 3.712C108.007 3.712 107.721 3.778 107.589 3.932C107.457 4.108 107.325 4.46 107.237 4.966L106.489 8.992ZM106.291 9.85L105.433 14.382C105.147 15.878 105.807 16.186 106.577 16.186C107.985 16.186 109.591 14.866 109.591 12.512C109.591 10.488 108.315 9.85 106.841 9.85H106.291ZM123.691 14.228L124.043 14.778C122.569 16.56 121.007 17.264 120.347 17.264C119.863 17.264 119.423 16.934 119.797 15.042L120.017 13.92H119.973C119.225 14.976 118.521 15.658 117.905 16.186C117.245 16.736 116.453 17.264 115.749 17.264C114.957 17.264 114.319 16.406 114.319 14.712C114.319 12.622 115.243 10.356 116.629 8.97C117.597 8.024 119.555 7.012 121.139 7.012C121.491 7.012 121.975 7.078 122.437 7.188C122.899 7.298 123.229 7.342 123.625 7.342L123.735 7.43C123.273 9.366 122.745 11.698 122.261 14.448C122.151 15.042 122.195 15.218 122.327 15.218C122.503 15.218 123.207 14.712 123.691 14.228ZM117.465 15.306C118.169 15.306 119.951 12.908 120.259 12.182C120.567 10.928 120.897 9.432 121.139 8.354C120.853 8.2 120.435 8.068 120.017 8.068C119.599 8.068 119.313 8.2 119.027 8.42C117.729 9.52 117.047 12.204 117.047 14.228C117.047 15.02 117.223 15.306 117.465 15.306ZM126.927 17.264C125.827 17.264 124.661 16.604 124.639 15.636C124.639 15.152 124.991 14.668 125.321 14.448C125.695 14.206 125.937 14.228 126.113 14.47C126.839 15.46 127.675 15.944 128.335 15.944C128.841 15.944 129.259 15.658 129.259 15.174C129.259 14.668 128.973 14.272 127.983 13.458C127.103 12.732 126.025 11.874 126.025 10.642C126.025 9.872 126.267 9.036 127.367 8.112C128.159 7.43 129.149 7.012 129.919 7.012C130.997 7.012 131.745 7.672 131.745 8.332C131.745 8.75 131.481 9.212 131.041 9.498C130.755 9.696 130.535 9.652 130.403 9.476C129.985 8.948 129.369 8.288 128.621 8.288C128.159 8.288 127.829 8.618 127.829 9.058C127.829 9.608 128.335 10.202 129.237 10.862C130.359 11.676 131.173 12.512 131.173 13.612C131.173 15.614 128.797 17.264 126.927 17.264ZM139.792 14.03L140.188 14.602C138.23 16.714 136.602 17.264 135.326 17.264C134.028 17.264 132.796 16.56 132.796 14.052C132.796 11.918 133.808 9.652 135.304 8.42C136.118 7.76 137.592 7.012 138.67 7.012C140.122 7.012 140.76 7.914 140.76 8.904C140.76 11.082 137.658 12.226 135.458 12.82C135.436 12.996 135.436 13.194 135.436 13.37C135.436 14.602 135.788 15.57 136.8 15.57C137.614 15.57 138.78 15.02 139.792 14.03ZM137.658 8.024C137.46 8.024 137.24 8.112 136.998 8.31C136.646 8.618 135.832 9.762 135.546 12.006C137.702 11.302 138.45 10.378 138.45 9.234C138.45 8.332 137.988 8.024 137.658 8.024Z" fill="#070707"/>
<defs>
<clipPath id="clip0_2649_27180">
<rect width="20" height="20" fill="white"/>
</clipPath>
</defs>
</svg>
